<?xml version="1.0" encoding="UTF-8" standalone="no"?>
<!DOCTYPE svg PUBLIC "-//W3C//DTD SVG 1.1//EN" "http://www.w3.org/Graphics/SVG/1.1/DTD/svg11.dtd">
<svg width="100%" height="100%" viewBox="0 0 59 64" version="1.1" xmlns="http://www.w3.org/2000/svg" xmlns:xlink="http://www.w3.org/1999/xlink" xml:space="preserve" xmlns:serif="http://www.serif.com/" style="fill-rule:evenodd;clip-rule:evenodd;stroke-linejoin:round;stroke-miterlimit:2;">
    <g transform="matrix(1,0,0,1,-93.3189,-16.4935)">
        <g transform="matrix(1,0,0,1,126.018,79.7576)">
            <path d="M0,-50.385C7.739,-49.22 14.99,-44.766 19.258,-38.206C23.525,-31.646 24.638,-23.054 21.881,-15.73C21.002,-13.394 19.761,-11.208 18.362,-9.141C17.075,-7.239 15.611,-5.391 13.669,-4.163C12.636,-3.51 11.494,-3.049 10.353,-2.607C7.777,-1.61 5.147,-0.684 2.409,-0.318C-3.432,0.462 -9.298,-1.347 -14.776,-3.518C-19.905,-5.551 -25.088,-8.067 -28.517,-12.389C-32.335,-17.202 -33.467,-23.836 -32.206,-29.849C-30.945,-35.862 -27.472,-41.264 -23.052,-45.532C-21.718,-46.821 -20.272,-48.032 -18.589,-48.812C-17.044,-49.527 -15.351,-49.856 -13.666,-50.1C-9.094,-50.763 -4.439,-50.847 0.153,-50.351" style="fill:rgb(220,148,61);fill-rule:nonzero;"/>
        </g>
        <g transform="matrix(1,0,0,1,148.605,79.1426)">
            <path d="M0,-29.916C-0.005,-29.767 -0.001,-29.62 -0.01,-29.471C-0.654,-18.17 -9.952,-2.406 -23.371,-7.358C-25.056,-7.98 -26.802,-8.779 -28.225,-9.889C-30.208,-11.437 -31.514,-13.662 -33.45,-15.248C-36.374,-17.644 -39.58,-14.954 -42.645,-14.302C-44.562,-13.895 -46.698,-14.688 -48.247,-15.806C-53.053,-19.277 -54.15,-25.145 -54.339,-30.993C-54.506,-30.411 -54.668,-29.828 -54.793,-29.234C-56.054,-23.221 -54.922,-16.587 -51.104,-11.774C-47.675,-7.452 -42.492,-4.936 -37.363,-2.903C-31.885,-0.732 -26.019,1.077 -20.178,0.297C-17.44,-0.069 -14.81,-0.995 -12.234,-1.992C-11.093,-2.434 -9.951,-2.895 -8.917,-3.548C-6.976,-4.776 -5.512,-6.624 -4.225,-8.526C-2.826,-10.593 -1.585,-12.779 -0.706,-15.115C1.064,-19.818 1.231,-25.041 0,-29.916" style="fill:rgb(203,109,51);fill-rule:nonzero;"/>
        </g>
        <g transform="matrix(1,0,0,1,131.975,27.0253)">
            <path d="M0,-0.932C2.687,-3.047 6.294,-3.494 9.706,-3.716C10.719,-3.783 11.739,-3.836 12.749,-3.728C15.108,-3.476 17.276,-2.365 19.383,-1.273C18.168,-0.059 16.912,1.183 15.333,1.858C14.089,2.39 12.719,2.536 11.371,2.647C9.403,2.808 7.399,2.904 5.476,2.459C3.553,2.013 1.694,0.958 0.677,-0.735C0.542,-0.959 0.613,-1.41 0.844,-1.286" style="fill:rgb(44,141,70);fill-rule:nonzero;"/>
        </g>
        <g transform="matrix(1,0,0,1,109.288,39.9646)">
            <path d="M0,-3.802C-1.959,-4.995 -5.833,-2.289 -4.806,-0.019C-4.513,0.628 -3.863,1.193 -3.097,1.085C-2.44,0.992 -2.006,0.712 -1.554,0.242C-1.451,0.136 -1.36,0.02 -1.261,-0.091C-1.239,-0.116 -1.049,-0.291 -1.022,-0.324C-0.512,-0.725 0.119,-1.063 0.507,-1.58C1.113,-2.386 0.811,-3.308 0,-3.802" style="fill:rgb(248,217,85);fill-rule:nonzero;"/>
        </g>
        <g transform="matrix(1,0,0,1,101.999,48.9241)">
            <path d="M0,-5.885C-1.051,-6.147 -1.829,-5.246 -2.372,-4.482C-3.045,-3.533 -3.555,-2.65 -3.592,-1.468C-3.631,-0.216 -2.037,0.262 -1.144,-0.318C-0.174,-0.948 0.348,-2.107 0.737,-3.161C1.078,-4.085 1.246,-5.574 0,-5.885" style="fill:rgb(248,217,85);fill-rule:nonzero;"/>
        </g>
        <g transform="matrix(1,0,0,1,137.103,62.7596)">
            <path d="M0,-0.057C-0.012,-0.052 -0.022,-0.048 -0.033,-0.042C-0.061,-0.029 -0.088,-0.015 -0.116,0L0,-0.057Z" style="fill-rule:nonzero;"/>
        </g>
        <g transform="matrix(1,0,0,1,137.327,62.5172)">
            <path d="M0,-1.461C-0.37,-1.763 -0.908,-1.836 -1.307,-1.536C-1.656,-1.273 -1.839,-0.782 -1.634,-0.384C-1.584,-0.036 -1.338,0.276 -0.97,0.331C-0.678,0.375 -0.502,0.31 -0.258,0.2C-0.214,0.177 -0.17,0.155 -0.126,0.132C-0.032,0.072 0.054,-0.016 0.129,-0.098C0.479,-0.484 0.391,-1.142 0,-1.461" style="fill:rgb(203,109,51);fill-rule:nonzero;"/>
        </g>
        <g transform="matrix(1,0,0,1,129.308,64.4236)">
            <path d="M0,-1.721C-0.361,-1.868 -0.758,-1.814 -1.047,-1.548C-1.416,-1.208 -1.433,-0.716 -1.188,-0.297C-1.163,-0.255 -1.139,-0.213 -1.114,-0.171C-0.994,0.034 -0.714,0.147 -0.485,0.125C-0.431,0.119 -0.376,0.114 -0.323,0.109C0.601,0.021 0.912,-1.349 0,-1.721" style="fill:rgb(203,109,51);fill-rule:nonzero;"/>
        </g>
        <g transform="matrix(-0.750835,0.660489,0.660489,0.750835,128.651,69.5454)">
            <path d="M0.569,-0.761C0.743,-0.552 0.966,-0.346 1.049,-0.082C1.14,0.205 0.871,0.518 0.569,0.379C0.286,0.25 0.09,-0.025 -0.118,-0.249C-0.488,-0.648 0.212,-1.189 0.569,-0.761" style="fill:rgb(203,109,51);fill-rule:nonzero;"/>
        </g>
        <g transform="matrix(1,0,0,1,138.623,67.9628)">
            <path d="M0,-1.246C-0.448,-1.617 -1.039,-1.327 -1.176,-0.813C-1.208,-0.725 -1.207,-0.711 -1.175,-0.769C-1.214,-0.717 -1.252,-0.663 -1.291,-0.611C-1.382,-0.48 -1.446,-0.371 -1.47,-0.211C-1.511,0.064 -1.282,0.371 -0.981,0.326C-0.687,0.281 -0.5,0.07 -0.219,-0.005C0.328,-0.151 0.399,-0.916 0,-1.246" style="fill:rgb(203,109,51);fill-rule:nonzero;"/>
        </g>
        <g transform="matrix(-0.614635,0.788812,0.788812,0.614635,134.697,71.5846)">
            <path d="M0.727,-0.635C0.909,-0.441 1.082,-0.276 1.18,-0.024C1.294,0.274 0.988,0.494 0.727,0.462C0.507,0.435 0.322,0.312 0.132,0.206C-0.552,-0.174 0.224,-1.17 0.727,-0.635" style="fill:rgb(203,109,51);fill-rule:nonzero;"/>
        </g>
        <g transform="matrix(1,0,0,1,134.14,35.3924)">
            <path d="M0,-18.784C-2.816,-17.011 -4.75,-13.556 -6.422,-10.752C-8.312,-7.58 -9.812,-4.258 -10.57,-0.634C-10.685,-0.087 -9.85,0.366 -9.525,-0.151C-7.748,-2.975 -6.209,-5.927 -4.531,-8.808C-2.795,-11.79 -0.171,-14.707 0.984,-17.963C1.202,-18.578 0.582,-19.15 0,-18.784" style="fill:rgb(65,12,1);fill-rule:nonzero;"/>
        </g>
    </g>
</svg>
