<?xml version="1.0" encoding="UTF-8" standalone="no"?>
<!DOCTYPE svg PUBLIC "-//W3C//DTD SVG 1.1//EN" "http://www.w3.org/Graphics/SVG/1.1/DTD/svg11.dtd">
<svg width="100%" height="100%" viewBox="0 0 100 111" version="1.1" xmlns="http://www.w3.org/2000/svg" xmlns:xlink="http://www.w3.org/1999/xlink" xml:space="preserve" xmlns:serif="http://www.serif.com/" style="fill-rule:evenodd;clip-rule:evenodd;stroke-linejoin:round;stroke-miterlimit:2;">
    <g transform="matrix(1,0,0,1,-383.596,-358.519)">
        <g transform="matrix(1,0,0,1,425.743,465.447)">
            <path d="M0,-61.578C1.29,-54.736 3.696,-48.105 7.091,-42.047C7.944,-40.521 9.122,-38.865 10.839,-38.754C11.968,-38.68 13.044,-39.346 13.75,-40.24C14.455,-41.135 14.853,-42.238 15.203,-43.33C17.375,-50.121 18.234,-57.351 17.714,-64.488C17.546,-64.473 17.898,-64.641 18.066,-64.662C19.643,-64.877 21.198,-65.224 22.715,-65.703C24.561,-42.744 23.721,-18.996 32.151,2.42C26.646,3.522 21.029,4.125 15.461,3.363C9.891,2.604 4.395,0.395 0.309,-3.545C0.357,-4.588 0.5,-5.693 0.532,-6.734C0.913,-18.984 -0.932,-31.193 -2.773,-43.316C-3.626,-48.93 -4.507,-54.642 -6.967,-59.75C-5.091,-61.432 -2.961,-62.363 -0.478,-62.002C-0.312,-61.978 -0.137,-61.943 -0.024,-61.816C0.088,-61.691 0.079,-61.449 -0.077,-61.392" style="fill:rgb(195,235,180);fill-rule:nonzero;"/>
        </g>
        <g transform="matrix(1,0,0,1,437.217,405.24)">
            <path d="M0,57.672C-0.264,55.004 0.144,52.463 1.007,49.942C1.986,47.082 3.93,43.475 3.484,40.367C3.185,38.279 2.239,37.256 1.009,35.736C0.534,35.152 0.315,34.252 0.405,33.518C0.584,32.055 1.451,31.137 2.666,30.391C3.652,29.783 5.22,29.215 5.8,28.145C6.31,27.197 5.312,25.221 5.49,24.049C5.857,21.647 6.446,19.266 7.325,17.004C8.507,13.967 10.051,11.016 12.132,8.541C11.878,3.848 11.614,-0.84 11.24,-5.496C9.724,-5.017 8.168,-4.67 6.592,-4.455C6.424,-4.433 6.071,-4.266 6.239,-4.281C6.76,2.856 5.9,10.086 3.729,16.877C3.378,17.969 2.98,19.072 2.275,19.967C1.569,20.861 0.493,21.527 -0.636,21.453C-2.353,21.342 -3.53,19.686 -4.384,18.16C-7.763,12.129 -10.161,5.529 -11.455,-1.279C-11.405,-1.379 -11.42,-1.521 -11.499,-1.609C-11.611,-1.736 -11.787,-1.771 -11.952,-1.795C-14.436,-2.156 -16.565,-1.224 -18.441,0.457C-15.981,5.565 -15.101,11.277 -14.248,16.891C-12.406,29.014 -10.562,41.223 -10.942,53.473C-10.975,54.514 -11.117,55.619 -11.166,56.662C-7.641,60.063 -3.065,62.166 1.703,63.168C0.803,61.561 0.203,59.729 0,57.672" style="fill:rgb(151,202,128);fill-rule:nonzero;"/>
        </g>
        <g transform="matrix(1,0,0,1,440.254,374.453)">
            <path d="M0,24.873C-1.425,26.189 -3.399,26.867 -5.323,26.705C-4.742,27.93 -4.98,29.443 -5.718,30.572C-6.453,31.699 -7.625,32.473 -8.867,32.957C-11.528,33.994 -14.941,33.615 -16.704,31.32C-16.776,31.91 -17.119,32.4 -17.423,32.904C-17.754,33.451 -18.204,33.912 -18.649,34.365C-19.433,35.166 -20.229,35.975 -21.188,36.547C-23.138,37.715 -25.699,37.75 -27.693,36.637C-27.965,37.939 -28.604,39.1 -29.646,39.898C-30.689,40.697 -32.22,40.914 -33.322,40.191C-34.259,39.576 -34.729,38.441 -34.987,37.34C-35.457,38.713 -36.755,39.686 -38.073,40.242C-39.39,40.801 -40.831,40.973 -42.251,41.137C-42.938,41.217 -43.633,41.297 -44.32,41.209C-45.005,41.121 -45.663,40.869 -46.285,40.564C-48.146,39.65 -49.807,38.197 -50.697,36.301C-51.588,34.402 -51.616,32.041 -50.512,30.275C-52.183,29.541 -54.146,28.623 -55.157,27.084C-55.775,26.144 -56.047,25.021 -56.289,23.92C-56.713,21.982 -57.011,19.74 -55.785,18.205C-55.022,17.248 -53.791,16.758 -53.061,15.773C-55.168,13.988 -56.124,10.713 -55.456,8.019C-54.79,5.324 -52.507,3.125 -49.823,2.592C-48.827,2.394 -47.743,2.424 -46.853,2.926C-46.596,3.072 -46.354,3.254 -46.073,3.346C-46.523,1.561 -46.91,-0.182 -46.926,-2.023C-46.938,-3.383 -46.811,-4.799 -46.114,-5.957C-45.71,-6.625 -45.136,-7.17 -44.52,-7.639C-41.855,-9.658 -38.227,-10.299 -35.035,-9.316C-34.669,-10.301 -33.631,-11.043 -32.702,-11.508C-31.773,-11.975 -30.745,-12.193 -29.729,-12.402C-28.557,-12.645 -27.225,-12.848 -26.254,-12.127C-25.812,-11.801 -25.507,-11.32 -25.229,-10.842C-23.85,-8.467 -22.877,-5.852 -22.368,-3.148C-21.591,-4.936 -19.468,-5.658 -17.541,-5.602C-15.616,-5.545 -13.799,-4.506 -12.481,-3.07C-10.84,-1.277 -9.894,1.152 -9.888,3.596C-9.618,2.596 -8.863,1.984 -7.974,1.482C-7.084,0.98 -6.061,0.768 -5.043,0.693C-5.279,-0.385 -4.692,-1.506 -4.178,-2.473C-3.626,-3.514 -3.041,-4.592 -2.09,-5.275C-1.178,-5.932 -0.036,-6.147 1.066,-6.344C1.76,-6.467 2.521,-6.582 3.132,-6.219C4.193,-8.674 5.25,-11.301 7.079,-13.231C8.909,-15.162 11.648,-16.424 14.213,-15.752C16.894,-15.049 18.668,-12.525 20.204,-10.18C20.274,-10.07 20.345,-9.918 20.257,-9.822C20.17,-9.727 20.018,-9.967 20.146,-9.957C20.999,-11.147 22.209,-11.85 23.602,-12.254C24.66,-12.563 25.781,-12.598 26.886,-12.588C27.695,-12.58 28.527,-12.547 29.28,-12.234C31.076,-11.488 31.91,-9.418 32.505,-7.539C33.065,-5.758 33.582,-3.881 33.264,-2.045C33.75,-2.51 34.519,-2.465 35.178,-2.336C35.837,-2.211 36.438,-1.869 37.011,-1.512C37.774,-1.037 38.55,-0.479 38.921,0.352C39.104,0.764 39.175,1.219 39.198,1.67C39.339,4.228 38.027,6.686 36.227,8.467C39.272,8.699 41.962,11.406 42.545,14.457C43.133,17.512 41.893,20.746 39.717,22.916C38.903,23.725 37.896,24.434 36.757,24.496C35.944,24.539 35.154,24.252 34.39,23.969C34.745,25.473 35.085,27.004 35.019,28.549C34.952,30.092 34.401,31.682 33.227,32.654C32.295,33.424 31.06,33.738 29.855,33.756C28.651,33.775 27.461,33.521 26.28,33.269C25.771,33.162 25.25,33.049 24.808,32.769C23.941,32.223 23.549,31.166 23.215,30.185C23.034,30.625 22.849,30.941 22.667,31.381C22.349,32.152 22.016,32.947 21.416,33.521C20.696,34.209 19.692,34.484 18.729,34.723C17.38,35.057 15.95,35.361 14.619,34.947C13.272,34.529 12.216,33.406 11.596,32.121C10.978,30.836 10.751,29.394 10.644,27.971C10.395,28.35 9.956,28.621 9.602,28.902C9.265,29.168 8.857,29.33 8.448,29.455C6.768,29.973 4.931,29.959 3.253,29.418C2.596,29.205 1.945,28.902 1.475,28.389C1.014,27.885 0.765,27.223 0.526,26.578C0.329,26.047 0.132,25.516 -0.064,24.984" style="fill:rgb(68,197,66);fill-rule:nonzero;"/>
        </g>
        <g transform="matrix(1,0,0,1,476.481,404.838)">
            <path d="M0,-21.918C1.801,-23.699 3.112,-26.156 2.972,-28.715C2.948,-29.166 2.877,-29.621 2.694,-30.033C2.323,-30.863 1.548,-31.422 0.784,-31.897C0.211,-32.254 -0.39,-32.596 -1.049,-32.721C-1.448,-32.799 -1.883,-32.83 -2.277,-32.752C-2.882,-31.721 -3.793,-30.818 -4.856,-30.012C-4.479,-29.705 -4.118,-29.383 -3.696,-29.137C-3.393,-28.963 -3.459,-28.529 -3.672,-28.326C-4.675,-27.369 -5.831,-26.826 -7.082,-26.369C-6.354,-25.813 -5.741,-25.137 -5.018,-24.52C-4.806,-24.338 -4.735,-24.039 -4.905,-23.803C-5.557,-22.887 -6.354,-22.355 -7.265,-22.141C-6.106,-21.219 -5.421,-19.846 -6.193,-18.223C-7.211,-16.084 -9.199,-15.066 -11.397,-15.119C-9.036,-11.018 -16.832,-12.688 -19.14,-13.408C-20.111,-13.713 -21.161,-13.994 -22.067,-14.481C-21.513,-14.182 -24.379,-10.357 -24.918,-9.912C-27.339,-7.922 -29.433,-10.303 -30.933,-12.324C-32.078,-11.01 -33.713,-8.871 -35.49,-9.125C-36.94,-9.332 -38.019,-11.625 -38.743,-13.154C-39.629,-11.604 -40.924,-9.691 -42.707,-9.549C-44.68,-9.391 -46.106,-10.545 -47.405,-11.912C-50.377,-9.084 -53.541,-9.895 -56.221,-12.848C-57.368,-11.615 -58.947,-9.867 -60.689,-9.969C-62.559,-10.076 -63.872,-11.652 -64.981,-13.068C-66.467,-11.779 -68.404,-9.891 -70.362,-9.82C-72.256,-9.752 -73.015,-11.168 -73.387,-12.781C-74.867,-11.125 -77.111,-8.109 -79.231,-9.525C-81.606,-11.111 -80.843,-14.693 -81.24,-17.254C-86.946,-16.729 -91.118,-22.527 -88.132,-26.996C-89.855,-26.01 -91.199,-24.324 -91.683,-22.365C-92.351,-19.672 -91.395,-16.397 -89.287,-14.611C-90.018,-13.627 -91.249,-13.137 -92.012,-12.18C-93.237,-10.645 -92.939,-8.402 -92.516,-6.465C-92.273,-5.363 -92.002,-4.24 -91.384,-3.301C-90.372,-1.762 -88.409,-0.844 -86.738,-0.109C-87.843,1.656 -87.814,4.018 -86.924,5.916C-86.033,7.812 -84.373,9.266 -82.512,10.18C-81.89,10.484 -81.231,10.736 -80.547,10.824C-79.859,10.912 -79.164,10.832 -78.478,10.752C-77.058,10.588 -75.616,10.416 -74.3,9.857C-72.981,9.301 -71.684,8.328 -71.214,6.955C-70.955,8.057 -70.485,9.191 -69.549,9.807C-68.446,10.529 -66.916,10.312 -65.873,9.514C-64.83,8.715 -64.191,7.555 -63.92,6.252C-61.926,7.365 -59.364,7.33 -57.415,6.162C-56.456,5.59 -55.659,4.781 -54.876,3.98C-54.431,3.527 -53.98,3.066 -53.649,2.519C-53.346,2.016 -53.003,1.525 -52.931,0.936C-51.168,3.23 -47.755,3.609 -45.094,2.572C-43.852,2.088 -42.68,1.314 -41.944,0.187C-41.207,-0.941 -40.969,-2.455 -41.55,-3.68C-39.626,-3.518 -37.651,-4.195 -36.227,-5.512L-36.291,-5.4C-36.095,-4.869 -35.897,-4.338 -35.7,-3.807C-35.462,-3.162 -35.213,-2.5 -34.752,-1.996C-34.281,-1.482 -33.631,-1.18 -32.974,-0.967C-31.296,-0.426 -29.459,-0.412 -27.778,-0.93C-27.369,-1.055 -26.962,-1.217 -26.625,-1.482C-26.271,-1.764 -25.832,-2.035 -25.583,-2.414C-25.476,-0.99 -25.249,0.451 -24.631,1.736C-24.011,3.021 -22.954,4.144 -21.607,4.562C-20.276,4.977 -18.847,4.672 -17.497,4.338C-16.534,4.1 -15.53,3.824 -14.811,3.137C-14.211,2.562 -13.878,1.768 -13.56,0.996C-13.378,0.557 -13.192,0.24 -13.012,-0.199C-12.678,0.781 -12.285,1.838 -11.419,2.385C-10.977,2.664 -10.455,2.777 -9.946,2.885C-8.766,3.137 -7.575,3.391 -6.371,3.371C-5.167,3.353 -3.932,3.039 -3,2.269C-1.825,1.297 -1.274,-0.293 -1.208,-1.836C-1.142,-3.381 -1.481,-4.912 -1.837,-6.416C-1.072,-6.133 -0.282,-5.846 0.53,-5.889C1.669,-5.951 2.677,-6.66 3.49,-7.469C5.666,-9.639 6.906,-12.873 6.318,-15.928C5.735,-18.979 3.046,-21.686 0,-21.918" style="fill:rgb(44,141,70);fill-rule:nonzero;"/>
        </g>
        <g transform="matrix(-0.983811,-0.179211,-0.179211,0.983811,447.717,450.305)">
            <path d="M-0.312,-5.969C0.296,-6.716 1.767,-6.211 1.484,-5.167C0.98,-3.299 0.387,-1.549 -0.312,0.253C-0.511,0.768 -1.314,0.745 -1.48,0.223C-2.201,-2.019 -1.802,-4.128 -0.312,-5.969" style="fill:white;fill-rule:nonzero;"/>
        </g>
        <g transform="matrix(-0.996899,-0.0786943,-0.0786943,0.996899,448.596,459.312)">
            <path d="M-0.64,-5.912C-0.22,-6.761 0.85,-6.142 0.885,-5.412C0.987,-3.299 0.411,-1.362 -0.64,0.441C-0.881,0.856 -1.606,0.743 -1.663,0.247C-1.913,-1.918 -1.617,-3.94 -0.64,-5.912" style="fill:white;fill-rule:nonzero;"/>
        </g>
    </g>
</svg>
