<?xml version="1.0" encoding="UTF-8" standalone="no"?>
<!DOCTYPE svg PUBLIC "-//W3C//DTD SVG 1.1//EN" "http://www.w3.org/Graphics/SVG/1.1/DTD/svg11.dtd">
<svg width="100%" height="100%" viewBox="0 0 72 136" version="1.1" xmlns="http://www.w3.org/2000/svg" xmlns:xlink="http://www.w3.org/1999/xlink" xml:space="preserve" xmlns:serif="http://www.serif.com/" style="fill-rule:evenodd;clip-rule:evenodd;stroke-linejoin:round;stroke-miterlimit:2;">
    <g transform="matrix(1,0,0,1,-225.552,-350.131)">
        <g transform="matrix(1,0,0,1,262.166,358.305)">
            <path d="M0,19.006C0.807,10.692 -0.642,2.168 -4.148,-5.412C-1.132,-6.004 1.929,-6.375 4.999,-6.523C5.597,1.899 5.818,10.346 5.664,18.785C9.308,10.252 11.475,1.088 12.041,-8.174C15.529,-6.857 19.261,-6.187 22.989,-6.209C19.412,1.481 16.411,9.438 14.017,17.572C13.792,18.338 13.75,19.447 14.523,19.643C17.197,12.672 22.708,6.836 29.516,3.77C30.786,6.541 32.607,9.059 34.843,11.133C27.36,14.842 19.207,19.287 16.479,27.18C11.272,25.037 6.066,22.897 0.86,20.756C0.481,20.6 0.062,20.402 -0.073,20.016C-0.21,19.631 0.235,19.113 0.569,19.35" style="fill:rgb(68,197,66);fill-rule:nonzero;"/>
        </g>
        <g transform="matrix(1,0,0,1,291.682,385.484)">
            <path d="M0,-23.41C-6.808,-20.344 -12.318,-14.508 -14.992,-7.537C-15.766,-7.732 -15.724,-8.842 -15.499,-9.607C-15.363,-10.068 -15.219,-10.527 -15.079,-10.986C-16.222,-9.17 -17.429,-7.41 -18.683,-5.723C-19.325,-4.859 -19.992,-3.998 -20.677,-3.142C-18.13,-2.096 -15.584,-1.049 -13.037,0C-10.309,-7.892 -2.155,-12.338 5.327,-16.047C3.092,-18.121 1.271,-20.639 0,-23.41" style="fill:rgb(44,141,70);fill-rule:nonzero;"/>
        </g>
        <g transform="matrix(1,0,0,1,227.953,377.685)">
            <path d="M0,107.389C2.164,108.795 5.073,108.621 7.412,107.53C9.609,106.504 11.391,104.78 13.083,103.043C27.542,88.213 38.593,70.432 48.714,52.36C52.145,46.235 55.511,39.991 57.41,33.231C59.311,26.471 59.653,19.073 57.08,12.539C54.507,6.006 48.672,0.539 41.713,-0.394C34.19,-1.406 25.917,-0.177 20.322,4.951C14.726,10.078 11.487,17.27 9.087,24.469C4.229,39.043 2.218,54.389 0.232,69.621C-1.023,79.254 -2.281,88.912 -2.397,98.625C-2.435,101.75 -2.169,105.287 0.226,107.295" style="fill:rgb(220,148,61);fill-rule:nonzero;"/>
        </g>
        <g transform="matrix(1,0,0,1,285.033,477.036)">
            <path d="M0,-86.811C-1.458,-90.512 -3.965,-93.87 -7.128,-96.256C-6.589,-94.514 -6.392,-92.627 -6.572,-90.698C-6.856,-87.676 -7.751,-84.59 -9.608,-82.145C-10.585,-80.858 -11.983,-79.827 -12.637,-78.311C-13.509,-76.288 -13.666,-73.991 -13.387,-71.825C-12.841,-67.59 -12.891,-64.03 -15.436,-60.407C-16.803,-58.461 -18.496,-56.614 -19.509,-54.444C-20.354,-52.635 -20.576,-51.272 -20.685,-49.352C-20.881,-45.864 -24.984,-42.663 -27.368,-40.588C-30.906,-37.51 -34.67,-34.715 -38.051,-31.457C-37.063,-30.383 -36.725,-28.768 -35.532,-27.893C-35.238,-27.678 -35.183,-27.233 -35.532,-27.03C-38.374,-25.368 -41.324,-25.764 -44.376,-26.295C-42.432,-23.211 -36.897,-19.961 -39.544,-16.145C-40.024,-15.456 -40.807,-15.077 -41.419,-14.532C-42.58,-13.497 -42.392,-11.944 -42.306,-10.549C-42.176,-8.459 -41.806,-6.053 -42.562,-4.032C-44.476,1.095 -51.435,2.898 -54.595,-1.981C-57.365,-6.254 -58.072,-11.911 -58.388,-17.137C-58.976,-11.68 -59.412,-6.211 -59.478,-0.725C-59.515,2.4 -59.25,5.937 -56.854,7.945L-57.08,8.039C-54.916,9.445 -52.007,9.271 -49.668,8.179C-47.471,7.154 -45.689,5.429 -43.997,3.693C-29.538,-11.137 -18.487,-28.918 -8.366,-46.991C-4.936,-53.116 -1.569,-59.36 0.33,-66.12C2.23,-72.879 2.573,-80.278 0,-86.811" style="fill:rgb(203,109,51);fill-rule:nonzero;"/>
        </g>
        <g transform="matrix(1,0,0,1,283.611,388.071)">
            <path d="M0,16.605C-1.173,13.933 -4.208,11.859 -6.467,10.125C-8.985,8.189 -11.674,6.498 -14.512,5.07C-20.522,2.048 -26.983,0.041 -33.666,-0.743C-34.191,-0.805 -34.339,0.003 -33.81,0.07C-27.356,0.878 -21.088,2.761 -15.397,5.937C-12.606,7.494 -9.926,9.291 -7.436,11.294C-5.177,13.113 -3.189,15.834 -0.665,17.214C-0.306,17.41 0.166,16.984 0,16.605" style="fill:rgb(65,12,1);fill-rule:nonzero;"/>
        </g>
        <g transform="matrix(1,0,0,1,271.762,397.937)">
            <path d="M0,10.92C-9.216,4.432 -20.289,0.684 -31.421,-0.518C-31.917,-0.57 -32.055,0.156 -31.557,0.25C-25.997,1.303 -20.407,2.777 -15.098,4.733C-9.92,6.639 -5.178,8.856 -0.275,11.357C-0.017,11.49 0.244,11.092 0,10.92" style="fill:rgb(65,12,1);fill-rule:nonzero;"/>
        </g>
        <g transform="matrix(1,0,0,1,273.327,412.07)">
            <path d="M0,16.426C-3.083,11.365 -9.67,7.588 -14.804,4.891C-20.766,1.758 -26.811,0.145 -33.419,-0.871C-33.934,-0.951 -34.076,-0.16 -33.56,-0.074C-27.483,0.944 -21.316,3.283 -15.87,6.131C-13.127,7.565 -10.51,9.221 -8.03,11.072C-5.51,12.955 -3.344,15.381 -0.712,17.084C-0.259,17.377 0.301,16.92 0,16.426" style="fill:rgb(65,12,1);fill-rule:nonzero;"/>
        </g>
        <g transform="matrix(1,0,0,1,266.187,427.761)">
            <path d="M0,11.155C-2.711,7.661 -7.196,5.262 -11.12,3.346C-15.495,1.208 -20.02,-0.134 -24.819,-0.902C-25.328,-0.982 -25.454,-0.234 -24.957,-0.118C-20.406,0.934 -15.9,2.563 -11.737,4.686C-7.737,6.725 -4.465,9.688 -0.614,11.891C-0.186,12.137 0.292,11.532 0,11.155" style="fill:rgb(65,12,1);fill-rule:nonzero;"/>
        </g>
        <g transform="matrix(1,0,0,1,249.598,438.243)">
            <path d="M0,5.151C-2.001,3.057 -5.065,1.997 -7.737,1.022C-10.504,0.012 -13.371,-0.818 -16.32,-0.994C-16.771,-1.021 -17.083,-0.361 -16.578,-0.169C-13.759,0.907 -10.851,1.715 -8.05,2.848C-5.514,3.872 -3.09,5.45 -0.415,6.049C0.135,6.172 0.32,5.485 0,5.151" style="fill:rgb(65,12,1);fill-rule:nonzero;"/>
        </g>
        <g transform="matrix(0.538466,-0.842647,-0.842647,-0.538466,263.155,447.685)">
            <path d="M-4.727,-2.607C-2.959,0.871 -3.346,4.829 -3.925,8.52C-4.007,9.041 -4.761,8.926 -4.727,8.41C-4.497,4.789 -5.404,1.201 -5.549,-2.391C-5.568,-2.879 -4.952,-3.046 -4.727,-2.607" style="fill:rgb(65,12,1);fill-rule:nonzero;"/>
        </g>
        <g transform="matrix(0.38857,-0.921419,-0.921419,-0.38857,244.97,453.473)">
            <path d="M-8.093,-5.221C-5.046,-0.052 -5.008,6.173 -6.755,11.802C-7.013,12.636 -8.311,12.365 -8.093,11.496C-6.706,5.95 -7.443,0.6 -8.948,-4.833C-9.086,-5.335 -8.371,-5.693 -8.093,-5.221" style="fill:rgb(65,12,1);fill-rule:nonzero;"/>
        </g>
        <g transform="matrix(1,0,0,1,240.967,469.969)">
            <path d="M0,1.082C-2.077,-0.781 -5.488,-1.111 -8.173,-0.875C-8.683,-0.83 -8.683,-0.129 -8.213,-0.012C-6.856,0.326 -5.503,0.67 -4.169,1.088C-2.918,1.482 -1.79,1.978 -0.483,2.127C0.106,2.193 0.455,1.488 0,1.082" style="fill:rgb(65,12,1);fill-rule:nonzero;"/>
        </g>
    </g>
</svg>
