<?xml version="1.0" encoding="UTF-8" standalone="no"?>
<!DOCTYPE svg PUBLIC "-//W3C//DTD SVG 1.1//EN" "http://www.w3.org/Graphics/SVG/1.1/DTD/svg11.dtd">
<svg width="100%" height="100%" viewBox="0 0 112 132" version="1.1" xmlns="http://www.w3.org/2000/svg" xmlns:xlink="http://www.w3.org/1999/xlink" xml:space="preserve" xmlns:serif="http://www.serif.com/" style="fill-rule:evenodd;clip-rule:evenodd;stroke-linejoin:round;stroke-miterlimit:2;">
    <g transform="matrix(1,0,0,1,-358.471,-133.565)">
        <g transform="matrix(1,0,0,1,449.066,263.594)">
            <path d="M0,-111.884C-7.745,-113.802 -16.403,-111.489 -22.16,-105.964C-26.644,-101.66 -29.243,-95.82 -32.103,-90.301C-35.165,-84.39 -38.639,-78.692 -42.489,-73.26C-46.688,-67.337 -51.466,-61.617 -57.696,-57.889C-63.938,-54.155 -71.35,-52.594 -77.33,-48.455C-83.933,-43.885 -88.228,-36.428 -89.893,-28.573C-91.562,-20.697 -90.42,-11.67 -84.687,-6.018C-82.875,-4.233 -80.688,-2.862 -78.381,-1.793C-71.185,1.539 -62.835,1.918 -55.097,0.185C-47.357,-1.547 -40.181,-5.283 -33.689,-9.838C-18.519,-20.483 -6.744,-35.816 -0.07,-53.105C1.516,-57.215 2.82,-61.426 4.278,-65.584C7.266,-74.101 10.957,-82.751 10.368,-91.758C9.875,-99.306 6.208,-106.595 0.441,-111.491" style="fill:rgb(170,109,205);fill-rule:nonzero;"/>
        </g>
        <g transform="matrix(1,0,0,1,459.434,244.579)">
            <path d="M0,-72.743C-0.493,-80.291 -4.16,-87.58 -9.927,-92.476L-10.368,-92.869C-13.027,-93.528 -15.793,-93.676 -18.513,-93.378C-16.37,-86.993 -13.916,-80.652 -13.279,-73.907C-11.986,-60.201 -16.05,-46.324 -22.099,-34.135C-27.905,-22.431 -36.388,-11.692 -47.062,-4.059C-57.355,3.302 -69.574,8.144 -82.371,5.564C-82.885,5.46 -83.399,5.341 -83.912,5.21C-84.008,5.259 -84.122,5.278 -84.257,5.237C-84.975,5.019 -85.655,4.751 -86.314,4.458C-88.815,3.534 -91.138,2.165 -92.859,0.08C-94.584,-2.007 -95.669,-4.393 -96.383,-6.917C-97.476,-9.895 -98.035,-13.141 -98.08,-16.394C-99.032,-14.194 -99.766,-11.895 -100.261,-9.558C-101.93,-1.682 -100.788,7.345 -95.055,12.997C-93.243,14.782 -91.056,16.153 -88.749,17.222C-81.553,20.554 -73.203,20.933 -65.465,19.2C-57.726,17.468 -50.549,13.732 -44.058,9.177C-28.887,-1.468 -17.112,-16.801 -10.438,-34.09C-8.853,-38.2 -7.548,-42.411 -6.09,-46.569C-3.103,-55.086 0.589,-63.736 0,-72.743" style="fill:rgb(106,65,159);fill-rule:nonzero;"/>
        </g>
        <g transform="matrix(1,0,0,1,455.151,144.822)">
            <path d="M0,19.155C0.876,22.143 3.063,24.72 5.868,26.071C8.674,27.422 12.053,27.523 14.935,26.344C11.954,25.544 9.33,23.499 7.826,20.805C6.581,18.572 6.111,16.006 5.586,13.504C5.06,11.003 4.428,8.444 2.928,6.374C1.428,4.304 -1.061,2.382 -3.567,2.884C-1.316,-1.059 0.485,-5.259 1.79,-9.608C-0.684,-10.045 -3.138,-10.596 -5.562,-11.257C-5.115,-10.649 -5.168,-9.82 -5.255,-9.071C-5.686,-5.337 -6.459,-1.643 -7.564,1.95C-7.684,2.336 -8.148,2.795 -8.382,2.465C-9.905,0.319 -13.405,-0.442 -15.97,0.15C-19.282,0.913 -20.997,4.558 -23.806,6.471C-25.777,7.815 -28.255,8.253 -30.638,8.139C-33.021,8.025 -35.345,7.399 -37.646,6.769C-35.866,10.059 -32.795,12.628 -29.241,13.798C-25.688,14.967 -21.691,14.725 -18.306,13.134C-17.92,12.953 -17.479,12.634 -17.562,12.217C-18.062,14.157 -19.221,15.67 -20.747,16.968C-22.274,18.266 -24.046,19.237 -25.804,20.198C-23.693,20.832 -21.42,20.342 -19.306,19.721C-16.041,18.762 -12.867,17.495 -9.841,15.941C-10.028,15.75 -10.335,15.69 -10.58,15.795C-10.516,20.554 -8.197,25.252 -5.203,28.951C-4.655,29.629 -3.985,30.316 -3.12,30.412C-3.553,26.543 -2.426,22.522 -0.046,19.442C-0.308,19.252 -0.745,19.508 -0.708,19.829" style="fill:rgb(68,197,66);fill-rule:nonzero;"/>
        </g>
        <g transform="matrix(1,0,0,1,452.647,134.797)">
            <path d="M0,10.917C1.753,7.559 3.206,4.045 4.294,0.417C3.597,0.294 2.904,0.141 2.21,0C2.192,0.182 2.174,0.361 2.157,0.533C1.901,3.175 1.443,5.814 0.735,8.375C0.577,8.948 0.335,9.885 0,10.917" style="fill:rgb(68,197,66);fill-rule:nonzero;"/>
        </g>
        <g transform="matrix(1,0,0,1,462.977,156.988)">
            <path d="M0,8.639C-1.245,6.407 -1.715,3.84 -2.24,1.338C-2.767,-1.163 -3.398,-3.722 -4.898,-5.792C-6.332,-7.769 -8.667,-9.607 -11.059,-9.329C-11.905,-7.382 -13.105,-5.653 -14.762,-5.815C-15.046,-4.193 -15.65,-1.659 -17.712,-1.988C-19.941,-2.343 -21.895,-4.795 -24.165,-3.221C-24.501,-2.987 -24.891,-3.307 -24.917,-3.653C-24.962,-4.241 -25.003,-4.781 -24.975,-5.337C-27.421,-5.029 -29.656,-3.84 -32.167,-3.903C-32.543,-3.912 -32.795,-4.321 -32.599,-4.655C-32.451,-4.907 -32.285,-5.147 -32.13,-5.393C-34.013,-4.293 -36.275,-3.923 -38.464,-4.027C-40.847,-4.141 -43.171,-4.767 -45.472,-5.397C-43.692,-2.107 -40.621,0.462 -37.067,1.632C-33.515,2.801 -29.518,2.559 -26.132,0.969C-25.91,0.864 -25.681,0.71 -25.533,0.522C-26.091,2.237 -27.174,3.612 -28.573,4.803C-30.101,6.1 -31.872,7.071 -33.63,8.033C-31.52,8.666 -29.246,8.177 -27.132,7.556C-24.117,6.67 -21.187,5.51 -18.372,4.116C-18.162,8.707 -15.921,13.212 -13.029,16.785C-12.481,17.463 -11.812,18.15 -10.946,18.246C-11.379,14.377 -10.252,10.356 -7.872,7.276C-7.931,7.234 -7.999,7.221 -8.067,7.218L-7.826,6.989C-6.95,9.977 -4.763,12.555 -1.958,13.905C0.848,15.256 4.227,15.357 7.108,14.178C4.128,13.378 1.504,11.333 0,8.639" style="fill:rgb(44,141,70);fill-rule:nonzero;"/>
        </g>
        <g transform="matrix(1,0,0,1,425.193,177.264)">
            <path d="M0,-7.942C-1.112,-6.961 -1.773,-5.478 -2.444,-4.171C-3.111,-2.869 -3.869,-1.612 -3.242,-0.15C-3.077,0.237 -2.676,0.452 -2.263,0.315C-0.748,-0.187 -0.302,-1.566 0.232,-2.94C0.762,-4.298 1.45,-5.792 1.443,-7.264C1.441,-7.921 0.512,-8.394 0,-7.942" style="fill:rgb(201,164,235);fill-rule:nonzero;"/>
        </g>
        <g transform="matrix(1,0,0,1,418.075,188.849)">
            <path d="M0,-5.793C-1.101,-4.531 -2.133,-2.935 -2.741,-1.372C-2.989,-0.733 -2.817,-0.029 -2.221,0.345C-1.705,0.669 -0.811,0.646 -0.448,0.069C0.518,-1.469 1.239,-3.264 1.627,-5.041C1.832,-5.976 0.586,-6.462 0,-5.793" style="fill:rgb(201,164,235);fill-rule:nonzero;"/>
        </g>
    </g>
</svg>
