<?xml version="1.0" encoding="UTF-8" standalone="no"?>
<!DOCTYPE svg PUBLIC "-//W3C//DTD SVG 1.1//EN" "http://www.w3.org/Graphics/SVG/1.1/DTD/svg11.dtd">
<svg width="100%" height="100%" viewBox="0 0 55 53" version="1.1" xmlns="http://www.w3.org/2000/svg" xmlns:xlink="http://www.w3.org/1999/xlink" xml:space="preserve" xmlns:serif="http://www.serif.com/" style="fill-rule:evenodd;clip-rule:evenodd;stroke-linejoin:round;stroke-miterlimit:2;">
    <g transform="matrix(1,0,0,1,-423.759,-237.411)">
        <g transform="matrix(1,0,0,1,476.476,288.828)">
            <path d="M0,-49.899C0.954,-48.644 1.29,-46.939 0.881,-45.414C0.531,-44.106 -0.323,-42.963 -0.605,-41.637C-1.172,-38.97 0.648,-36.462 1.542,-33.888C3.116,-29.357 1.779,-24.318 -0.278,-19.986C-3.833,-12.502 -9.647,-5.998 -17.014,-2.207C-24.382,1.582 -33.31,2.5 -41.1,-0.322C-42.005,-0.648 -42.945,-1.031 -43.899,-0.894C-44.474,-0.812 -45.003,-0.546 -45.544,-0.337C-47.343,0.358 -49.375,0.432 -51.219,-0.132C-51.477,-2.419 -50.921,-4.517 -49.807,-6.533C-49.564,-6.97 -49.283,-7.443 -49.37,-7.935C-49.444,-8.353 -49.767,-8.675 -50.053,-8.988C-52.637,-11.82 -53.181,-16.062 -52.368,-19.806C-51.556,-23.552 -49.567,-26.923 -47.563,-30.189C-42.886,-37.806 -37.515,-45.653 -29.351,-49.293C-22.382,-52.399 -14.138,-51.922 -7.087,-49.006C-6.63,-48.817 -6.156,-48.614 -5.66,-48.631C-5.133,-48.649 -4.649,-48.914 -4.171,-49.138C-2.809,-49.776 -1.31,-50.125 0.194,-50.152" style="fill:rgb(248,217,85);fill-rule:nonzero;"/>
        </g>
        <g transform="matrix(1,0,0,1,470.816,289.807)">
            <path d="M0,-49.61C-0.496,-49.593 -0.97,-49.797 -1.427,-49.985C-1.68,-50.089 -1.937,-50.184 -2.192,-50.282C6.433,-42.464 7.497,-26.803 -2.613,-19.268C-7.023,-15.981 -13.015,-13.533 -18.586,-13.777C-21.479,-13.902 -24.167,-14.606 -26.632,-16.152C-29.069,-17.682 -31.45,-19.545 -34.389,-17.916C-36.184,-16.92 -37.791,-14.397 -40.071,-14.557C-42.068,-14.697 -43.456,-16.125 -44.568,-17.699C-45.322,-18.766 -46.049,-19.869 -46.654,-20.996C-46.67,-20.926 -46.693,-20.858 -46.708,-20.785C-47.521,-17.041 -46.977,-12.799 -44.393,-9.967C-44.106,-9.654 -43.784,-9.332 -43.71,-8.914C-43.623,-8.422 -43.904,-7.949 -44.146,-7.512C-45.261,-5.496 -45.816,-3.399 -45.559,-1.111C-43.715,-0.547 -41.683,-0.621 -39.884,-1.317C-39.343,-1.526 -38.813,-1.791 -38.239,-1.873C-37.285,-2.01 -36.345,-1.627 -35.439,-1.301C-27.649,1.521 -18.722,0.603 -11.354,-3.186C-3.987,-6.977 1.827,-13.481 5.382,-20.965C7.439,-25.297 8.776,-30.336 7.202,-34.867C6.309,-37.442 4.488,-39.949 5.055,-42.616C5.337,-43.942 6.191,-45.085 6.541,-46.393C6.95,-47.918 6.614,-49.623 5.66,-50.878L5.854,-51.131C4.351,-51.104 2.852,-50.755 1.489,-50.117C1.011,-49.893 0.527,-49.628 0,-49.61" style="fill:rgb(220,148,61);fill-rule:nonzero;"/>
        </g>
        <g transform="matrix(1,0,0,1,454.197,244.65)">
            <path d="M0,-1.338C0.44,-2.088 -0.158,-3.114 -1.037,-3.073C-2.193,-3.021 -3.402,-2.462 -4.345,-1.814C-5.065,-1.317 -6.197,-0.121 -5.623,0.857C-5.083,1.776 -3.597,1.442 -2.843,1.088C-1.763,0.58 -0.609,-0.3 0,-1.338" style="fill:rgb(255,244,196);fill-rule:nonzero;"/>
        </g>
        <g transform="matrix(1,0,0,1,445.695,248.306)">
            <path d="M0,1.139C0.556,0.487 1.114,-0.14 1.425,-0.944C1.738,-1.756 0.769,-2.502 0.034,-2.291C-0.756,-2.064 -1.432,-1.52 -2.081,-1.03C-2.816,-0.475 -3.583,0.035 -4.088,0.815C-4.983,2.201 -3.21,3.641 -1.912,2.951C-1.15,2.545 -0.555,1.789 0,1.139" style="fill:rgb(255,244,196);fill-rule:nonzero;"/>
        </g>
        <g transform="matrix(-0.980581,0.196116,0.196116,0.980581,452.241,269.881)">
            <path d="M0.255,-2.58C1.01,-2.548 1.498,-2.004 1.557,-1.277C1.614,-0.597 0.919,0.054 0.255,0.025C-0.498,-0.008 -0.988,-0.551 -1.048,-1.279C-1.103,-1.96 -0.409,-2.609 0.255,-2.58" style="fill:rgb(220,148,61);fill-rule:nonzero;"/>
        </g>
        <g transform="matrix(1,0,0,1,455.54,273.235)">
            <path d="M0,0.271C0.102,1.15 1.447,0.873 1.346,0C1.244,-0.879 -0.102,-0.602 0,0.271" style="fill:rgb(220,148,61);fill-rule:nonzero;"/>
        </g>
        <g transform="matrix(1,0,0,1,456.635,267.341)">
            <path d="M0,-0.894C-0.297,-0.548 -0.329,0.022 0.004,0.364C0.301,0.668 0.729,0.756 1.099,0.6L1.101,0.6C1.453,0.585 1.741,0.321 1.673,-0.056C1.67,-0.072 1.664,-0.085 1.661,-0.099C1.844,-0.978 0.651,-1.65 0,-0.894" style="fill:rgb(220,148,61);fill-rule:nonzero;"/>
        </g>
        <g transform="matrix(-0.980559,0.196222,0.196222,0.980559,461.886,270.232)">
            <path d="M0.177,-1.8C0.702,-1.777 1.043,-1.4 1.084,-0.892C1.122,-0.417 0.639,0.036 0.177,0.015C-0.348,-0.006 -0.689,-0.385 -0.73,-0.891C-0.769,-1.365 -0.285,-1.818 0.177,-1.8" style="fill:rgb(220,148,61);fill-rule:nonzero;"/>
        </g>
    </g>
</svg>
