<?xml version="1.0" encoding="UTF-8" standalone="no"?>
<!DOCTYPE svg PUBLIC "-//W3C//DTD SVG 1.1//EN" "http://www.w3.org/Graphics/SVG/1.1/DTD/svg11.dtd">
<svg width="100%" height="100%" viewBox="0 0 73 82" version="1.1" xmlns="http://www.w3.org/2000/svg" xmlns:xlink="http://www.w3.org/1999/xlink" xml:space="preserve" xmlns:serif="http://www.serif.com/" style="fill-rule:evenodd;clip-rule:evenodd;stroke-linejoin:round;stroke-miterlimit:2;">
    <g transform="matrix(1,0,0,1,-85.3905,-89.2695)">
        <g transform="matrix(1,0,0,1,117.634,94.8308)">
            <path d="M0,11.011C0.059,5.36 1.72,-0.268 4.763,-5.132C7.661,-1.376 9.425,3.154 9.794,7.79C13.414,2.79 17.79,-1.72 22.747,-5.561C25.187,0.87 24.253,8.36 20.299,14.078C19.935,14.605 19.536,15.127 18.993,15.49C18.259,15.982 17.334,16.135 16.438,16.213C12.332,16.572 8.236,15.628 4.232,14.692C3.292,14.472 2.324,14.241 1.541,13.702C0.757,13.164 0.189,12.236 0.396,11.341" style="fill:rgb(132,32,47);fill-rule:nonzero;"/>
        </g>
        <g transform="matrix(1,0,0,1,140.381,111.14)">
            <path d="M0,-21.87C-4.819,-18.136 -9.083,-13.765 -12.643,-8.932C-12.409,-5.823 -11.309,-2.759 -9.609,-0.068C-8.511,-0.003 -7.41,0 -6.309,-0.096C-5.413,-0.174 -4.488,-0.327 -3.754,-0.819C-3.211,-1.182 -2.813,-1.704 -2.448,-2.23C1.506,-7.949 2.439,-15.438 0,-21.87" style="fill:rgb(164,45,62);fill-rule:nonzero;"/>
        </g>
        <g transform="matrix(1,0,0,1,141.379,151.425)">
            <path d="M0,-42.25C0.009,-42.029 0.018,-41.808 0.027,-41.586C2.611,-46.844 6.794,-51.387 11.945,-54.533C4.248,-54.74 -3.727,-52.059 -8.158,-46.106C-8.089,-45.947 -8.019,-45.789 -7.949,-45.63C-7.799,-51.12 -8.404,-56.628 -9.745,-61.972C-13.733,-58.737 -16.579,-54.265 -17.733,-49.419C-17.969,-48.43 -18.259,-47.79 -19.098,-47.159C-19.036,-46.983 -18.962,-46.964 -18.9,-46.788C-19.476,-48.929 -20.911,-50.764 -22.418,-52.452C-23.801,-54 -25.296,-55.498 -27.128,-56.549C-28.961,-57.6 -31.181,-58.172 -33.275,-57.745C-29.347,-54.364 -26.555,-49.821 -25.395,-44.92C-40.787,-39.421 -52.431,-25.872 -55.36,-10.566C-56.444,-4.901 -56.311,1.196 -53.477,6.292C-50.466,11.707 -44.698,15.396 -38.551,17.306C-32.403,19.215 -25.842,19.537 -19.372,19.639C-14.067,19.722 -8.703,19.662 -3.552,18.462C1.599,17.263 6.577,14.819 9.848,10.871C12.734,7.385 14.099,2.999 15.065,-1.332C15.968,-5.372 16.579,-9.494 16.422,-13.619C15.994,-24.779 9.56,-35.586 -0.311,-41.722" style="fill:rgb(164,45,62);fill-rule:nonzero;"/>
        </g>
        <g transform="matrix(1,0,0,1,157.801,122.998)">
            <path d="M0,14.808C-0.428,3.648 -6.862,-7.159 -16.732,-13.295L-16.422,-13.823C-16.413,-13.602 -16.404,-13.381 -16.395,-13.159C-13.811,-18.417 -9.628,-22.96 -4.477,-26.106C-12.055,-26.31 -19.894,-23.707 -24.363,-17.947C-24.286,-23.121 -24.874,-28.302 -26.119,-33.341C-27.071,-30.053 -28.156,-26.787 -28.766,-23.439C-29.185,-21.137 -29.912,-17.681 -28.381,-15.583C-26.441,-12.923 -22.036,-14.683 -19.61,-15.648C-19.083,-15.858 -18.734,-15.034 -19.226,-14.784C-21.123,-13.817 -22.819,-12.585 -24.76,-11.699C-22.718,-8.604 -19.845,-6.346 -17.472,-3.503C-11.493,3.664 -15.362,14.168 -19.66,21.275C-21.415,24.178 -24.132,28.437 -27.955,29.147C-30.334,29.589 -31.373,28.524 -33.37,27.643C-35.693,26.62 -39.332,29.312 -41.713,29.916C-47.319,31.336 -54.252,32.789 -59.345,29.19C-62.608,26.884 -64.868,23.53 -66.335,19.97C-67.698,16.664 -68.761,12.556 -68.818,8.539C-70.151,11.533 -71.169,14.654 -71.782,17.861C-72.866,23.526 -72.732,29.623 -69.898,34.719C-66.888,40.134 -61.12,43.823 -54.973,45.733C-48.825,47.642 -42.264,47.964 -35.794,48.066C-30.489,48.149 -25.125,48.089 -19.974,46.889C-14.823,45.69 -9.845,43.246 -6.574,39.298C-3.688,35.812 -2.323,31.426 -1.356,27.095C-0.454,23.055 0.157,18.933 0,14.808" style="fill:rgb(132,32,47);fill-rule:nonzero;"/>
        </g>
        <g transform="matrix(1,0,0,1,100.916,127.03)">
            <path d="M0,-3.59C-0.176,-4.055 -0.396,-4.262 -0.914,-4.375C-2.464,-4.711 -3.241,-3.037 -3.768,-1.974C-4.207,-1.088 -5.093,1.073 -3.257,1.101C-1.969,1.121 -0.802,-0.823 -0.272,-1.762C0.052,-2.339 0.243,-2.946 0,-3.59" style="fill:rgb(233,66,86);fill-rule:nonzero;"/>
        </g>
        <g transform="matrix(1,0,0,1,106.269,120.468)">
            <path d="M0,-2.825C-0.404,-3.538 -1.153,-3.745 -1.954,-3.566C-2.746,-3.39 -3.587,-2.768 -4.082,-2.169C-4.311,-1.892 -4.596,-1.58 -4.751,-1.261C-4.921,-0.91 -4.943,-0.578 -4.99,-0.201C-5.055,0.323 -4.509,0.92 -3.913,0.659C-3.661,0.549 -3.413,0.508 -3.159,0.385C-2.888,0.255 -2.641,0.089 -2.39,-0.029C-1.764,-0.323 -1.089,-0.542 -0.494,-0.891C0.178,-1.284 0.356,-2.197 0,-2.825" style="fill:rgb(233,66,86);fill-rule:nonzero;"/>
        </g>
    </g>
</svg>
