<?xml version="1.0" encoding="UTF-8" standalone="no"?>
<!DOCTYPE svg PUBLIC "-//W3C//DTD SVG 1.1//EN" "http://www.w3.org/Graphics/SVG/1.1/DTD/svg11.dtd">
<svg width="100%" height="100%" viewBox="0 0 73 69" version="1.1" xmlns="http://www.w3.org/2000/svg" xmlns:xlink="http://www.w3.org/1999/xlink" xml:space="preserve" xmlns:serif="http://www.serif.com/" style="fill-rule:evenodd;clip-rule:evenodd;stroke-linejoin:round;stroke-miterlimit:2;">
    <g transform="matrix(1,0,0,1,-81.319,-187.205)">
        <g transform="matrix(1,0,0,1,151.309,205.904)">
            <path d="M0,32.067C3.425,24.748 3.632,16.981 -0.059,9.728C-3.657,2.657 -9.349,-3.41 -15.755,-8.026C-23.276,-13.443 -32.135,-17.135 -41.35,-18.308C-45.706,-18.863 -50.787,-18.97 -55.264,-17.674C-59.093,-16.978 -62.744,-14.59 -65.213,-11.682C-70.025,-6.017 -70.86,1.964 -69.228,8.994C-67.359,17.035 -62.259,23.816 -56.678,29.702C-50.529,36.186 -43.357,42.34 -35.345,46.414C-28.771,49.756 -21.228,51.037 -14.375,47.721C-7.889,44.584 -3.009,38.495 0,32.067" style="fill:rgb(220,148,61);fill-rule:nonzero;"/>
        </g>
        <g transform="matrix(1,0,0,1,153.416,214.885)">
            <path d="M0,16.799C-0.521,17.019 -1.063,17.184 -1.631,17.287C-2.658,18.821 -4.178,20.023 -6.206,20.645C-8.816,21.445 -11.601,21.546 -14.302,21.223C-17.342,20.859 -19.92,19.139 -22.606,17.799C-23.67,17.269 -27.695,14.933 -28.57,16.433C-28.96,17.103 -29.384,17.881 -29.98,18.397C-31.459,19.675 -32.801,19.569 -34.599,18.998C-44.957,15.705 -54.545,6.9 -60.404,-2.085C-64.584,-8.495 -65.753,-17.509 -61.981,-24.416C-61.82,-24.712 -61.643,-24.981 -61.469,-25.257C-63.722,-24.13 -65.758,-22.502 -67.319,-20.663C-72.132,-14.998 -72.967,-7.017 -71.334,0.013C-69.465,8.054 -64.366,14.835 -58.785,20.721C-52.635,27.205 -45.463,33.359 -37.451,37.433C-30.877,40.775 -23.334,42.056 -16.481,38.74C-9.996,35.603 -5.115,29.514 -2.106,23.086C-1.14,21.019 -0.438,18.916 0,16.799" style="fill:rgb(203,109,51);fill-rule:nonzero;"/>
        </g>
        <g transform="matrix(1,0,0,1,118.073,196.376)">
            <path d="M0,-0.279C1.361,0.764 3.17,1.271 4.761,1.874C6.349,2.478 7.981,3.138 9.693,3.231C11.142,3.31 11.589,1.587 10.586,0.728C9.277,-0.393 7.59,-1.036 6.018,-1.703C4.437,-2.374 2.833,-3.207 1.112,-3.396C-0.655,-3.589 -1.289,-1.27 0,-0.279" style="fill:rgb(248,217,85);fill-rule:nonzero;"/>
        </g>
        <g transform="matrix(1,0,0,1,104.576,192.653)">
            <path d="M0,-1.192C0.769,-0.154 2.138,0.1 3.294,0.498C4.655,0.969 5.935,1.665 7.299,2.108C8.279,2.426 9.126,1.114 8.369,0.378C6.715,-1.228 2.429,-3.618 0.164,-2.198C-0.221,-1.958 -0.258,-1.541 0,-1.192" style="fill:rgb(248,217,85);fill-rule:nonzero;"/>
        </g>
    </g>
</svg>
