<?xml version="1.0" encoding="UTF-8" standalone="no"?>
<!DOCTYPE svg PUBLIC "-//W3C//DTD SVG 1.1//EN" "http://www.w3.org/Graphics/SVG/1.1/DTD/svg11.dtd">
<svg width="100%" height="100%" viewBox="0 0 44 66" version="1.1" xmlns="http://www.w3.org/2000/svg" xmlns:xlink="http://www.w3.org/1999/xlink" xml:space="preserve" xmlns:serif="http://www.serif.com/" style="fill-rule:evenodd;clip-rule:evenodd;stroke-linejoin:round;stroke-miterlimit:2;">
    <g transform="matrix(1,0,0,1,-32.0672,-211.204)">
        <g transform="matrix(1,0,0,1,57.6216,273.204)">
            <path d="M0,-47.639C-5.287,-49.84 -11.683,-50.958 -16.515,-47.812C-20.429,-45.264 -22.346,-40.535 -23.521,-35.984C-25.129,-29.761 -25.792,-23.292 -25.479,-16.878C-25.235,-11.894 -24.351,-6.798 -21.722,-2.589C-19.729,0.6 -16.453,3.282 -12.712,3.309C-11.063,3.319 -9.444,2.819 -7.931,2.145C-3.307,0.094 0.473,-3.497 3.906,-7.247C7.603,-11.283 11.054,-15.644 13.293,-20.656C15.531,-25.665 16.479,-31.411 15.063,-36.697C14.778,-37.759 14.392,-38.813 13.728,-39.683C13.188,-40.389 12.487,-40.947 11.776,-41.475C8.35,-44.02 4.53,-46.022 0.496,-47.389" style="fill:rgb(233,66,86);fill-rule:nonzero;"/>
        </g>
        <g transform="matrix(1,0,0,1,42.1309,235.895)">
            <path d="M0,26.98C-1.8,20.839 -2.353,13.138 0.298,7.105C1.51,4.346 3.256,2.324 6.306,1.801C9.015,1.336 11.766,1.504 14.478,1.161C14.146,0.096 13.927,-0.987 13.699,-2.088C13.582,-2.661 14.357,-3.085 14.667,-2.523C17.512,2.628 24.803,3.248 30.797,1.762C30.719,1.378 30.655,0.991 30.554,0.612C30.269,-0.45 29.883,-1.504 29.219,-2.374C28.679,-3.079 27.978,-3.638 27.267,-4.166C23.84,-6.71 20.021,-8.712 15.986,-10.08L15.491,-10.33C10.204,-12.53 3.808,-13.648 -1.024,-10.502C-4.938,-7.954 -6.855,-3.225 -8.03,1.325C-9.638,7.549 -10.301,14.017 -9.988,20.431C-9.744,25.416 -8.86,30.511 -6.231,34.72C-4.239,37.91 -0.962,40.591 2.779,40.619C4.402,40.628 5.996,40.138 7.489,39.482C4.076,36.095 1.442,31.896 0,26.98" style="fill:rgb(164,45,62);fill-rule:nonzero;"/>
        </g>
        <g transform="matrix(1,0,0,1,42.0157,243.914)">
            <path d="M0,-1.798C-0.194,-2.903 -1.518,-3.079 -2.053,-2.122C-2.294,-1.693 -2.449,-1.118 -2.457,-0.622C-2.464,-0.17 -2.396,0.495 -2.08,0.826C-1.843,1.073 -1.466,1.281 -1.115,1.104C-0.162,0.622 0.175,-0.803 0,-1.798" style="fill-rule:nonzero;"/>
        </g>
        <g transform="matrix(1,0,0,1,52.5728,248.015)">
            <path d="M0,-3.223C-0.271,-4.044 -1.304,-3.889 -1.666,-3.257C-1.947,-2.768 -2.131,-2.202 -2.31,-1.668C-2.497,-1.109 -2.427,-0.531 -2.513,0.048C-2.595,0.589 -2.035,0.821 -1.625,0.593C-0.975,0.228 -0.342,-0.193 -0.083,-0.934C0.176,-1.674 0.248,-2.472 0,-3.223" style="fill-rule:nonzero;"/>
        </g>
        <g transform="matrix(1,0,0,1,63.8853,252.514)">
            <path d="M0,-3.824C-0.191,-4.15 -0.641,-4.209 -0.965,-4.103C-2.316,-3.664 -3.021,-1.439 -2.427,-0.213C-2.252,0.147 -1.861,0.385 -1.46,0.215C-1.198,0.108 -1.026,-0.041 -0.833,-0.232C0.155,-1.053 0.658,-2.705 0,-3.824" style="fill-rule:nonzero;"/>
        </g>
        <g transform="matrix(1,0,0,1,42.919,256.115)">
            <path d="M0,-1.504C0.042,-2.01 -0.203,-2.49 -0.708,-2.631C-1.181,-2.764 -1.713,-2.547 -1.916,-2.07C-2.209,-1.373 -2.7,-0.369 -2.329,0.361C-2.287,0.559 -2.23,0.746 -2.09,0.904C-1.876,1.142 -1.579,1.26 -1.266,1.142C-1.035,1.055 -0.886,0.912 -0.74,0.74C-0.103,0.252 -0.064,-0.734 0,-1.504" style="fill-rule:nonzero;"/>
        </g>
        <g transform="matrix(1,0,0,1,56.1299,260.045)">
            <path d="M0,-2.02C0.006,-2.737 -0.906,-3.008 -1.41,-2.647C-2.123,-2.131 -2.875,-1.364 -2.759,-0.446C-2.778,-0.04 -2.729,0.349 -2.382,0.626C-1.934,0.988 -1.457,0.771 -1.037,0.515C-0.983,0.48 -0.641,0.275 -0.522,0.125C-0.317,-0.135 -0.208,-0.479 -0.127,-0.795C-0.021,-1.208 -0.002,-1.596 0,-2.02" style="fill-rule:nonzero;"/>
        </g>
        <g transform="matrix(1,0,0,1,46.3418,266.582)">
            <path d="M0,-2.271C0.016,-2.724 -0.099,-3.132 -0.513,-3.378C-0.869,-3.587 -1.385,-3.611 -1.722,-3.322C-2.321,-2.808 -2.664,-2.074 -3.028,-1.382C-3.413,-0.652 -3.582,0.348 -2.752,0.836C-1.9,1.34 -1.096,0.651 -0.726,-0.119C-0.422,-0.75 -0.025,-1.566 0,-2.271" style="fill-rule:nonzero;"/>
        </g>
        <g transform="matrix(1,0,0,1,55.6714,221.682)">
            <path d="M0,8.378C-4.601,9.721 -9.333,10.589 -14.102,10.966C-11.292,8.15 -8.23,5.589 -4.969,3.326C-5.653,4.238 -7.112,3.921 -8.209,3.663C-11.596,2.869 -15.15,1.987 -17.685,-0.411C-13.408,-0.145 -9.106,-0.253 -4.843,-0.734C-5.112,-3.44 -4.987,-6.726 -4.625,-9.425C-4.784,-8.504 -4.235,-7.631 -3.712,-6.867C-2.802,-5.537 -1.892,-4.206 -0.982,-2.877C-0.206,-1.743 0.765,-0.494 2.131,-0.434C2.537,-1.131 3.128,-1.913 3.533,-2.611C5.056,-5.234 6.577,-7.856 8.1,-10.478C9.462,-9.966 10.825,-9.455 12.188,-8.942C9.556,-5.916 6.843,-2.741 5.818,1.148C5.771,1.325 5.704,1.533 5.529,1.587C5.354,1.641 5.186,1.336 5.359,1.281C6.913,2.705 9.616,2.685 11.657,2.159C13.697,1.633 15.493,0.41 17.161,-0.896C15.876,1.803 13.885,4.158 11.446,5.859C13.784,8.093 16.814,9.583 19.996,10.093C17.152,11.49 13.853,11.397 10.701,11.273C9.469,11.226 8.155,11.149 7.167,10.409C6.959,13.342 7.809,16.41 9.406,18.856C5.648,17.259 2.541,14.168 0.899,10.393C0.596,9.697 0.333,8.963 -0.166,8.394" style="fill:rgb(44,141,70);fill-rule:nonzero;"/>
        </g>
    </g>
</svg>
