<?xml version="1.0" encoding="UTF-8" standalone="no"?>
<!DOCTYPE svg PUBLIC "-//W3C//DTD SVG 1.1//EN" "http://www.w3.org/Graphics/SVG/1.1/DTD/svg11.dtd">
<svg width="100%" height="100%" viewBox="0 0 83 99" version="1.1" xmlns="http://www.w3.org/2000/svg" xmlns:xlink="http://www.w3.org/1999/xlink" xml:space="preserve" xmlns:serif="http://www.serif.com/" style="fill-rule:evenodd;clip-rule:evenodd;stroke-linejoin:round;stroke-miterlimit:2;">
    <g transform="matrix(1,0,0,1,-138.602,-345.125)">
        <g transform="matrix(1,0,0,1,215.12,345.523)">
            <path d="M0,98.452C-24.171,98.85 -48.687,91.218 -67.313,75.807C-71.125,72.653 -74.797,69.024 -76.518,64.386C-48.517,43.575 -21.112,21.727 5.863,-0.398C6.222,0.348 5.873,1.044 5.889,1.872C6.495,34.194 -0.727,66.259 -0.485,98.585" style="fill:rgb(233,66,86);fill-rule:nonzero;"/>
        </g>
        <g transform="matrix(1,0,0,1,186.726,426.836)">
            <path d="M0,-12.611C-11.827,-15.513 -22.364,-21.41 -30.751,-30.037C-36.519,-25.629 -42.306,-21.252 -48.124,-16.927C-46.403,-12.289 -42.731,-8.66 -38.919,-5.506C-20.417,9.801 3.896,17.426 27.91,17.137C27.846,7.821 28.407,-1.474 29.214,-10.759C19.431,-9.935 9.532,-10.273 0,-12.611" style="fill:rgb(164,45,62);fill-rule:nonzero;"/>
        </g>
        <g transform="matrix(1,0,0,1,165.317,432.127)">
            <path d="M0,-19.916C-5.685,-22.613 -11.814,-25.824 -15.038,-30.988C-18.919,-28.047 -22.81,-25.121 -26.715,-22.219C-24.995,-17.58 -21.323,-13.951 -17.51,-10.797C-9.945,-4.539 -1.409,0.438 7.681,4.113C7.753,4.125 7.827,4.137 7.899,4.15C21.706,6.457 35.511,8.766 49.317,11.072C49.301,5.949 49.467,0.832 49.758,-4.279C32.352,-4.791 15.824,-12.408 0,-19.916" style="fill:rgb(195,235,180);fill-rule:nonzero;"/>
        </g>
        <g transform="matrix(1,0,0,1,214.695,414.039)">
            <path d="M0,23.145C-10.599,23.993 -21.359,22.256 -31.419,18.76C-42.67,14.852 -53.089,8.805 -62.717,1.793C-65.254,-0.054 -67.755,-1.984 -69.879,-4.296C-70.693,-5.179 -71.442,-6.117 -72.155,-7.082C-73.469,-6.099 -74.777,-5.109 -76.093,-4.13C-74.373,0.508 -70.701,4.137 -66.888,7.291C-48.386,22.598 -24.075,30.227 -0.061,29.938C-0.076,27.672 -0.052,25.409 0,23.145" style="fill:rgb(44,141,70);fill-rule:nonzero;"/>
        </g>
        <g transform="matrix(1,0,0,1,215.12,444.108)">
            <path d="M0,-0.133C-0.162,-0.131 -0.324,-0.133 -0.485,-0.131C-0.485,-0.086 -0.486,-0.043 -0.485,0L0,-0.133Z" style="fill:rgb(192,192,192);fill-rule:nonzero;"/>
        </g>
        <g transform="matrix(1,0,0,1,172.087,400.812)">
            <path d="M0,-7.619C-1.518,-7.24 -2.716,-6.244 -3.696,-5.037C-4.575,-3.955 -5.783,-2.504 -5.631,-1.027C-5.559,-0.33 -4.846,0.164 -4.169,-0.084C-2.874,-0.557 -2.088,-1.986 -1.245,-3.012C-0.343,-4.109 0.492,-5.226 0.949,-6.582C1.167,-7.226 0.663,-7.783 0,-7.619" style="fill-rule:nonzero;"/>
        </g>
        <g transform="matrix(1,0,0,1,183.208,408.586)">
            <path d="M0,-7.92C-1.28,-7.254 -2.028,-5.986 -2.725,-4.772C-3.368,-3.654 -4.453,-2.295 -4.251,-0.951C-4.146,-0.252 -3.474,0.277 -2.759,0.012C-1.405,-0.488 -0.753,-2.102 -0.036,-3.275C0.725,-4.518 1.412,-5.785 1.365,-7.277C1.341,-8.012 0.537,-8.197 0,-7.92" style="fill-rule:nonzero;"/>
        </g>
        <g transform="matrix(-0.850942,-0.52526,-0.52526,0.850942,190.686,411.221)">
            <path d="M-4.037,-5.876C-3.449,-6.514 -2.63,-6.397 -2.199,-5.664C-1.457,-4.409 -1.563,1.445 -4.037,0.698C-5.221,0.341 -5.091,-1.305 -5.042,-2.273C-4.98,-3.504 -4.915,-4.921 -4.037,-5.876" style="fill-rule:nonzero;"/>
        </g>
        <g transform="matrix(1,0,0,1,209.042,416.596)">
            <path d="M0,-5.457C-0.145,-6.09 -1.021,-6.121 -1.385,-5.701C-2.393,-4.539 -2.661,-3.111 -2.818,-1.619C-2.873,-1.1 -2.858,0.664 -1.887,0.391C-0.86,0.102 -0.546,-1.187 -0.25,-2.082C0.135,-3.242 0.274,-4.258 0,-5.457" style="fill-rule:nonzero;"/>
        </g>
        <g transform="matrix(-0.795178,-0.606376,-0.606376,0.795178,204.024,397.131)">
            <path d="M-1.15,-7.061C-0.631,-7.407 -0.081,-7.001 0.006,-6.466C0.296,-4.64 -0.601,-2.465 -1.15,-0.732C-1.522,0.445 -3.333,0.42 -3.391,-0.936C-3.482,-3.011 -2.994,-5.832 -1.15,-7.061" style="fill-rule:nonzero;"/>
        </g>
        <g transform="matrix(-0.960827,-0.277149,-0.277149,0.960827,193.338,394.156)">
            <path d="M-1.655,-8.252C-0.005,-6.443 -0.123,-3.404 0.146,-1.102C0.264,-0.091 -1.322,0.484 -1.655,-0.585C-2.372,-2.873 -3.744,-5.643 -2.949,-8.045C-2.759,-8.621 -2.02,-8.652 -1.655,-8.252" style="fill-rule:nonzero;"/>
        </g>
        <g transform="matrix(1,0,0,1,186.042,389.201)">
            <path d="M0,-7.256C-1.083,-6.735 -1.861,-5.709 -2.554,-4.748C-3.268,-3.758 -4.111,-2.729 -4.547,-1.58C-4.896,-0.662 -3.89,0.338 -3.011,-0.299C-2.008,-1.024 -1.24,-2.067 -0.465,-3.022C0.256,-3.908 1.128,-4.981 1.338,-6.125C1.465,-6.817 0.706,-7.594 0,-7.256" style="fill-rule:nonzero;"/>
        </g>
        <g transform="matrix(-0.931666,-0.363317,-0.363317,0.931666,196.145,374.763)">
            <path d="M-1.989,-6.9C-0.576,-5.291 -0.391,-2.815 -0.103,-0.779C0.057,0.355 -1.604,0.554 -1.989,-0.418C-2.748,-2.335 -3.758,-4.537 -3.316,-6.637C-3.173,-7.32 -2.388,-7.355 -1.989,-6.9" style="fill-rule:nonzero;"/>
        </g>
        <g transform="matrix(1,0,0,1,210.222,377.336)">
            <path d="M0,-6.238C-0.126,-6.783 -0.81,-6.738 -1.124,-6.437C-1.97,-5.627 -2.408,-4.718 -2.823,-3.631C-3.203,-2.631 -3.652,-1.58 -3.559,-0.498C-3.502,0.166 -2.719,0.545 -2.17,0.155C-0.38,-1.121 0.478,-4.179 0,-6.238" style="fill-rule:nonzero;"/>
        </g>
        <g transform="matrix(1,0,0,1,211.983,364.625)">
            <path d="M0,-4.844C-0.089,-5.17 -0.426,-5.305 -0.727,-5.313C-1.627,-5.338 -2.327,-4.489 -2.831,-3.846C-3.4,-3.119 -4.031,-2.371 -4.433,-1.535C-4.881,-0.606 -3.677,0.494 -2.829,-0.198C-2.068,-0.817 -1.459,-1.627 -0.854,-2.395C-0.305,-3.092 0.251,-3.924 0,-4.844" style="fill-rule:nonzero;"/>
        </g>
    </g>
</svg>
